<svg xmlns="http://www.w3.org/2000/svg" xmlns:xlink="http://www.w3.org/1999/xlink" width="2000" zoomAndPan="magnify" viewBox="0 0 1500 1499.999933" height="2000" preserveAspectRatio="xMidYMid meet" version="1.0"><defs><clipPath id="ab423941ff"><path d="M 61 61 L 1439.730469 61 L 1439.730469 1438.6875 L 61 1438.6875 Z M 61 61 " clip-rule="nonzero"/></clipPath></defs><g clip-path="url(#ab423941ff)"><path fill="#0dc0e0" d="M 1042.660156 252.820312 C 954.101562 200.410156 853.1875 172.574219 750.296875 172.207031 L 750.296875 61.003906 C 927.828125 61.1875 1098.46875 129.902344 1226.574219 252.820312 Z M 750.296875 640.628906 L 750.296875 335.359375 L 1301.675781 337.425781 C 1368.277344 426.675781 1412.28125 530.710938 1429.871094 640.675781 L 750.296875 640.675781 Z M 863.613281 527.175781 L 1283.027344 527.175781 C 1271.679688 500.074219 1258.3125 473.847656 1242.972656 448.769531 L 863.613281 448.769531 Z M 523.25 218.875 L 523.25 490.0625 L 647.039062 490.0625 L 644.972656 69.683594 C 406.949219 106.707031 205.535156 265.3125 113.761719 487.996094 L 235.390625 487.996094 C 296.847656 367.328125 398.726562 272.066406 523.25 218.875 Z M 1439.519531 749.855469 C 1439.519531 1128.617188 1133.835938 1436.414062 755.074219 1438.988281 C 753.511719 1438.941406 751.90625 1438.894531 750.34375 1438.847656 L 750.34375 734.515625 L 1439.289062 733.320312 Z M 1003.890625 1078 L 853.277344 1078 L 853.277344 1318.457031 C 905.550781 1308.765625 956.214844 1291.863281 1003.890625 1268.300781 Z M 1003.890625 855.179688 L 853.277344 855.179688 L 853.277344 968.636719 L 1003.890625 968.636719 Z M 1225.011719 1078 L 1113.257812 1078 L 1113.257812 1199.078125 C 1156.066406 1164.261719 1193.730469 1123.472656 1225.011719 1078 Z M 1318.300781 855.179688 L 1113.210938 855.179688 L 1113.210938 968.636719 L 1284.679688 968.636719 C 1299.789062 932.074219 1311.042969 894.039062 1318.300781 855.179688 Z M 617.691406 582.890625 L 81.882812 582.890625 C 67.414062 640.539062 60.480469 699.835938 61.214844 759.273438 C 63.925781 931.292969 130.847656 1096.097656 248.894531 1221.265625 L 248.894531 1035.144531 C 200.390625 950.628906 174.023438 855.179688 172.28125 757.757812 C 172.050781 738.007812 172.785156 715.820312 174.578125 696.117188 L 242.742188 696.117188 L 327.300781 696.347656 L 327.300781 1293.5625 C 360.28125 1319.011719 395.511719 1341.425781 432.535156 1360.488281 L 431.570312 696.070312 L 540.796875 696.070312 L 541.855469 1405.59375 C 575.523438 1416.617188 610.019531 1425.023438 645.019531 1430.71875 L 647.085938 582.847656 Z M 617.691406 582.890625 " fill-opacity="1" fill-rule="nonzero"/></g></svg>